<svg _ngcontent-ivr-c847="" width="14" height="20" viewBox="0 0 14 20" fill="none" xmlns="http://www.w3.org/2000/svg" class="ng-star-inserted"><path _ngcontent-ivr-c847="" d="M12.436 14.7766C11.5959 15.5351 10.5759 16.0663 9.47282 16.3199C9.09115 16.4103 8.70197 16.4654 8.31021 16.4845V18.6657H5.94896V16.1913C4.84748 15.846 3.85472 15.2202 3.06814 14.3753C1.93739 13.1357 1.31055 11.5184 1.31055 9.84058C1.31055 8.16275 1.93739 6.54544 3.06814 5.30586C3.85454 4.44992 4.85395 3.81796 5.96439 3.47448V1.30872H8.32049V3.17611C9.83565 3.25597 11.2775 3.85341 12.4051 4.8686C12.4406 4.90136 12.469 4.94112 12.4884 4.98539C12.5078 5.02966 12.5178 5.07748 12.5178 5.12581C12.5178 5.17415 12.5078 5.22196 12.4884 5.26623C12.469 5.3105 12.4406 5.35027 12.4051 5.38303L10.5531 7.23498C10.49 7.29506 10.4062 7.32856 10.3191 7.32856C10.2319 7.32856 10.1481 7.29506 10.085 7.23498C9.5932 6.8284 8.99563 6.57055 8.36243 6.49168C7.72923 6.41281 7.08666 6.5162 6.51016 6.78971C5.93365 7.06323 5.44713 7.49552 5.10769 8.03584C4.76825 8.57616 4.58999 9.2021 4.59382 9.84019C4.59765 10.4783 4.78341 11.102 5.12931 11.6382C5.47521 12.1744 5.96688 12.6009 6.54662 12.8674C7.12637 13.134 7.77013 13.2297 8.40234 13.1432C9.03455 13.0568 9.62898 12.7918 10.1159 12.3793C10.1719 12.3276 10.2454 12.2989 10.3216 12.2989C10.3979 12.2989 10.4714 12.3276 10.5274 12.3793L12.4462 14.3033C12.4811 14.3325 12.5089 14.3691 12.5276 14.4105C12.5464 14.4519 12.5556 14.497 12.5546 14.5424C12.5536 14.5878 12.5424 14.6324 12.5219 14.673C12.5014 14.7135 12.472 14.7489 12.436 14.7766Z"  stroke-width="1.25" stroke-linecap="round" stroke-linejoin="round" stroke="#85899B"></path></svg>