<?xml version="1.0" encoding="UTF-8"?>
<svg class="ng-star-inserted" fill="none" _ngcontent-ivr-c847="" viewBox="0 0 13 20" xmlns="http://www.w3.org/2000/svg">
<path d="m7.7745 16.707c0 0.5319 3.9e-4 1.0759-9e-5 1.62-4.3e-4 0.4695-0.08953 0.5601-0.55916 0.5615-0.57407 0.0017-1.1481 0-1.7223 5e-4 -0.38455 3e-4 -0.49623-0.1084-0.49676-0.4895-7.4e-4 -0.4996-1.7e-4 -0.9993-1.7e-4 -1.4792-0.60434-0.1195-1.1883-0.2004-1.7515-0.3565-0.52135-0.1445-1.025-0.3581-1.5273-0.5636-0.26658-0.1092-0.31434-0.2482-0.24338-0.5258 0.19231-0.7524 0.38533-1.5046 0.58279-2.2557 0.09354-0.3557 0.28669-0.4483 0.6162-0.2774 0.90852 0.4709 1.8669 0.7564 2.8902 0.8213 0.46876 0.0297 0.93028 0.0072 1.3731-0.1641 0.31185-0.1205 0.56517-0.3036 0.61803-0.6662 0.0546-0.3746-0.10715-0.6671-0.40936-0.8519-0.35695-0.2182-0.73137-0.4193-1.1203-0.5712-0.83137-0.3247-1.6849-0.594-2.4555-1.059-0.98539-0.59461-1.7284-1.3819-1.9315-2.5572-0.32829-1.8996 0.59806-3.5814 2.3848-4.3588 0.29166-0.12691 0.59797-0.22232 0.90227-0.31691 0.12957-0.04025 0.18744-0.09027 0.18443-0.23663-0.00968-0.47939-0.00598-0.95918-0.00236-1.4388 0.00227-0.30439 0.12146-0.42667 0.42136-0.4282 0.62492-0.00318 1.2499-0.00322 1.8748 0.00175 0.33779 0.00261 0.45135 0.12346 0.45319 0.46814 0.00244 0.45642 6.1e-4 0.91284 6.1e-4 1.346 0.54581 0.10156 1.0714 0.17417 1.5829 0.3026 0.40605 0.10192 0.79853 0.26314 1.1903 0.41512 0.2626 0.10187 0.3191 0.23876 0.2459 0.51965-0.1903 0.73041-0.3831 1.4603-0.5784 2.1893-0.0909 0.3395-0.2901 0.42681-0.62979 0.26397-0.84424-0.40448-1.7308-0.6442-2.6675-0.63556-0.34879 0.00318-0.71633 0.05442-1.0406 0.17609-0.59265 0.22245-0.66317 0.81938-0.1477 1.1808 0.31791 0.22293 0.67411 0.39911 1.0303 0.55772 0.81484 0.36287 1.6595 0.66334 2.456 1.0614 0.84314 0.42135 1.5272 1.0491 1.8776 1.9532 0.768 1.9816 0.1129 4.3602-2.2816 5.3944-0.35167 0.152-0.72274 0.2588-1.1195 0.3987z" clip-rule="evenodd" fill-rule="evenodd" stroke="#85899B" stroke-width="1.25" _ngcontent-ivr-c847=""/>
</svg>
